<svg width="20" height="20" viewBox="0 0 20 20" fill="none" xmlns="http://www.w3.org/2000/svg">
<g id="icn" clip-path="url(#clip0_2659_43735)">
<path id="Vector" d="M11.6665 2.72449C11.6665 2.14033 11.1932 1.66699 10.609 1.66699H9.3915C8.8065 1.66699 8.33317 2.14033 8.33317 2.72449C8.33317 3.20616 8.00317 3.61949 7.554 3.79616C7.48317 3.82449 7.41234 3.85449 7.34317 3.88449C6.90067 4.07616 6.37484 4.01783 6.03317 3.67699C5.83487 3.47883 5.56601 3.36752 5.28567 3.36752C5.00533 3.36752 4.73647 3.47883 4.53817 3.67699L3.6765 4.53866C3.47835 4.73696 3.36703 5.00582 3.36703 5.28616C3.36703 5.5665 3.47835 5.83536 3.6765 6.03366C4.01817 6.37533 4.0765 6.90033 3.88317 7.34366C3.85279 7.41343 3.82362 7.48372 3.79567 7.55449C3.619 8.00366 3.20567 8.33366 2.724 8.33366C2.13984 8.33366 1.6665 8.80699 1.6665 9.39116V10.6095C1.6665 11.1937 2.13984 11.667 2.724 11.667C3.20567 11.667 3.619 11.997 3.79567 12.4462C3.824 12.517 3.854 12.5878 3.88317 12.657C4.07567 13.0995 4.01734 13.6253 3.6765 13.967C3.47835 14.1653 3.36703 14.4342 3.36703 14.7145C3.36703 14.9948 3.47835 15.2637 3.6765 15.462L4.53817 16.3237C4.73647 16.5218 5.00533 16.6331 5.28567 16.6331C5.56601 16.6331 5.83487 16.5218 6.03317 16.3237C6.37484 15.982 6.89984 15.9237 7.34317 16.1162C7.41234 16.147 7.48317 16.1762 7.554 16.2045C8.00317 16.3812 8.33317 16.7945 8.33317 17.2762C8.33317 17.8603 8.8065 18.3337 9.39067 18.3337H10.609C11.1932 18.3337 11.6665 17.8603 11.6665 17.2762C11.6665 16.7945 11.9965 16.3812 12.4457 16.2037C12.5165 16.1762 12.5873 16.147 12.6565 16.117C13.099 15.9237 13.6248 15.9828 13.9657 16.3237C14.0639 16.4219 14.1805 16.4998 14.3088 16.553C14.4371 16.6062 14.5747 16.6335 14.7136 16.6335C14.8525 16.6335 14.99 16.6062 15.1184 16.553C15.2467 16.4998 15.3633 16.4219 15.4615 16.3237L16.3232 15.462C16.5213 15.2637 16.6326 14.9948 16.6326 14.7145C16.6326 14.4342 16.5213 14.1653 16.3232 13.967C15.9815 13.6253 15.9232 13.1003 16.1157 12.657C16.1465 12.5878 16.1757 12.517 16.204 12.4462C16.3807 11.997 16.794 11.667 17.2757 11.667C17.8598 11.667 18.3332 11.1937 18.3332 10.6095V9.39199C18.3332 8.80783 17.8598 8.33449 17.2757 8.33449C16.794 8.33449 16.3807 8.00449 16.2032 7.55533C16.1752 7.48454 16.1461 7.41425 16.1157 7.34449C15.924 6.90199 15.9823 6.37616 16.3232 6.03449C16.5213 5.83619 16.6326 5.56733 16.6326 5.28699C16.6326 5.00666 16.5213 4.73779 16.3232 4.53949L15.4615 3.67783C15.2632 3.47967 14.9943 3.36836 14.714 3.36836C14.4337 3.36836 14.1648 3.47967 13.9665 3.67783C13.6248 4.01949 13.0998 4.07783 12.6565 3.88533C12.5867 3.85467 12.5165 3.82522 12.4457 3.79699C11.9965 3.61949 11.6665 3.20533 11.6665 2.72449Z" stroke="#116ACC" stroke-width="1.5" stroke-linecap="round" stroke-linejoin="round"/>
<path id="Vector_2" d="M13.3332 10.0003C13.3332 10.8844 12.982 11.7322 12.3569 12.3573C11.7317 12.9825 10.8839 13.3337 9.99984 13.3337C9.11578 13.3337 8.26794 12.9825 7.64281 12.3573C7.01769 11.7322 6.6665 10.8844 6.6665 10.0003C6.6665 9.11627 7.01769 8.26842 7.64281 7.6433C8.26794 7.01818 9.11578 6.66699 9.99984 6.66699C10.8839 6.66699 11.7317 7.01818 12.3569 7.6433C12.982 8.26842 13.3332 9.11627 13.3332 10.0003Z" stroke="#116ACC" stroke-width="1.5" stroke-linecap="round" stroke-linejoin="round"/>
</g>
<defs>
<clipPath id="clip0_2659_43735">
<rect width="20" height="20" fill="white"/>
</clipPath>
</defs>
</svg>
