<svg width="20" height="20" viewBox="0 0 20 20" fill="none" xmlns="http://www.w3.org/2000/svg">
<g id="Frame">
<path id="Vector" d="M10.6008 4.16951L9.37914 4.16701C6.59247 4.16034 4.1733 6.42451 4.15414 9.16701V12.3253C4.15414 12.9837 4.0708 13.6262 3.71164 14.1737L3.47247 14.5387C3.1083 15.092 3.49997 15.8337 4.15414 15.8337H15.8458C16.5 15.8337 16.8908 15.092 16.5275 14.5387L16.2883 14.1737C15.93 13.6262 15.8458 12.9828 15.8458 12.3245V9.16784C15.8125 6.42451 13.3875 4.17617 10.6008 4.16951Z" stroke="black" stroke-opacity="0.5" stroke-width="1.25" stroke-linecap="round" stroke-linejoin="round"/>
<path id="Vector_2" d="M12.5 15.833C12.5 16.496 12.2366 17.1319 11.7678 17.6008C11.2989 18.0696 10.663 18.333 10 18.333C9.33696 18.333 8.70107 18.0696 8.23223 17.6008C7.76339 17.1319 7.5 16.496 7.5 15.833" stroke="black" stroke-opacity="0.5" stroke-width="1.25" stroke-linecap="round" stroke-linejoin="round"/>
<path id="Vector_3" d="M10.0002 1.66699C10.4422 1.66699 10.8661 1.84259 11.1787 2.15515C11.4912 2.46771 11.6668 2.89163 11.6668 3.33366V4.16699H8.3335V3.33366C8.3335 2.89163 8.50909 2.46771 8.82165 2.15515C9.13421 1.84259 9.55814 1.66699 10.0002 1.66699Z" stroke="black" stroke-opacity="0.5" stroke-width="1.25" stroke-linecap="round" stroke-linejoin="round"/>
</g>
</svg>
