<svg width="20" height="20" viewBox="0 0 20 20" fill="none" xmlns="http://www.w3.org/2000/svg">
<g id="icn">
<path id="Vector" d="M1.66669 4.16667C1.66669 3.72464 1.84228 3.30072 2.15484 2.98816C2.4674 2.67559 2.89133 2.5 3.33335 2.5H8.33335V17.5H3.33335C2.89133 17.5 2.4674 17.3244 2.15484 17.0118C1.84228 16.6993 1.66669 16.2754 1.66669 15.8333V4.16667Z" stroke="black" stroke-opacity="0.7" stroke-width="1.5" stroke-linecap="round" stroke-linejoin="round"/>
<path id="Vector_2" d="M11.6667 2.5H16.6667C17.1087 2.5 17.5326 2.67559 17.8452 2.98816C18.1578 3.30072 18.3334 3.72464 18.3334 4.16667V8.33333H11.6667V2.5Z" stroke="black" stroke-opacity="0.7" stroke-width="1.5" stroke-linecap="round" stroke-linejoin="round"/>
<path id="Vector_3" d="M11.6667 11.667H18.3334V15.8337C18.3334 16.2757 18.1578 16.6996 17.8452 17.0122C17.5326 17.3247 17.1087 17.5003 16.6667 17.5003H11.6667V11.667Z" stroke="black" stroke-opacity="0.7" stroke-width="1.5" stroke-linecap="round" stroke-linejoin="round"/>
</g>
</svg>
