<svg width="20" height="20" viewBox="0 0 20 20" fill="none" xmlns="http://www.w3.org/2000/svg">
<g id="icn">
<path id="Union" fill-rule="evenodd" clip-rule="evenodd" d="M14.2222 17H5C4.44772 17 4 16.5523 4 16V3C4 2.44772 4.44772 2 5 2H10.7174C10.6754 2.11948 10.6553 2.25188 10.6632 2.39448L10.8441 5.64018C10.8724 6.14868 11.2784 6.55465 11.7869 6.58299L15.0326 6.76388C15.098 6.76753 15.1613 6.76527 15.2222 6.75769V16C15.2222 16.5523 14.7745 17 14.2222 17ZM15.0339 5.7111C15.0464 5.72851 15.0584 5.74628 15.0697 5.7644L11.8425 5.58454L11.6617 2.33883L15.0339 5.7111ZM16.054 5.49224C16.164 5.74318 16.2222 6.0163 16.2222 6.29519V16C16.2222 17.1046 15.3268 18 14.2222 18H5C3.89543 18 3 17.1046 3 16V3C3 1.89543 3.89543 1 5 1H11.1101C11.6604 1 12.1863 1.22671 12.5642 1.62676L15.6763 4.92194C15.7156 4.96363 15.753 5.00683 15.7884 5.0514L15.7954 5.05833C15.9259 5.18882 16.0101 5.33784 16.054 5.49224ZM5.83333 10.9167C5.83333 10.6559 6.04475 10.4444 6.30556 10.4444H12.9167C13.1775 10.4444 13.3889 10.6559 13.3889 10.9167C13.3889 11.1775 13.1775 11.3889 12.9167 11.3889H6.30556C6.04475 11.3889 5.83333 11.1775 5.83333 10.9167ZM6.30556 13.2778C6.04475 13.2778 5.83333 13.4892 5.83333 13.75C5.83333 14.0108 6.04475 14.2222 6.30556 14.2222H11.0278C11.2886 14.2222 11.5 14.0108 11.5 13.75C11.5 13.4892 11.2886 13.2778 11.0278 13.2778H6.30556Z" fill="black" fill-opacity="0.7"/>
</g>
</svg>
