<svg width="20" height="20" viewBox="0 0 20 20" fill="none" xmlns="http://www.w3.org/2000/svg">
<g id="icn" clip-path="url(#clip0_2653_31269)">
<path id="Vector" d="M11.6667 2.72449C11.6667 2.14033 11.1934 1.66699 10.6092 1.66699H9.39169C8.80669 1.66699 8.33335 2.14033 8.33335 2.72449C8.33335 3.20616 8.00335 3.61949 7.55419 3.79616C7.48335 3.82449 7.41252 3.85449 7.34335 3.88449C6.90085 4.07616 6.37502 4.01783 6.03335 3.67699C5.83506 3.47883 5.56619 3.36752 5.28585 3.36752C5.00552 3.36752 4.73665 3.47883 4.53835 3.67699L3.67669 4.53866C3.47853 4.73696 3.36722 5.00582 3.36722 5.28616C3.36722 5.5665 3.47853 5.83536 3.67669 6.03366C4.01835 6.37533 4.07669 6.90033 3.88335 7.34366C3.85298 7.41343 3.82381 7.48372 3.79585 7.55449C3.61919 8.00366 3.20585 8.33366 2.72419 8.33366C2.14002 8.33366 1.66669 8.80699 1.66669 9.39116V10.6095C1.66669 11.1937 2.14002 11.667 2.72419 11.667C3.20585 11.667 3.61919 11.997 3.79585 12.4462C3.82419 12.517 3.85419 12.5878 3.88335 12.657C4.07585 13.0995 4.01752 13.6253 3.67669 13.967C3.47853 14.1653 3.36722 14.4342 3.36722 14.7145C3.36722 14.9948 3.47853 15.2637 3.67669 15.462L4.53835 16.3237C4.73665 16.5218 5.00552 16.6331 5.28585 16.6331C5.56619 16.6331 5.83506 16.5218 6.03335 16.3237C6.37502 15.982 6.90002 15.9237 7.34335 16.1162C7.41252 16.147 7.48335 16.1762 7.55419 16.2045C8.00335 16.3812 8.33335 16.7945 8.33335 17.2762C8.33335 17.8603 8.80669 18.3337 9.39085 18.3337H10.6092C11.1934 18.3337 11.6667 17.8603 11.6667 17.2762C11.6667 16.7945 11.9967 16.3812 12.4459 16.2037C12.5167 16.1762 12.5875 16.147 12.6567 16.117C13.0992 15.9237 13.625 15.9828 13.9659 16.3237C14.0641 16.4219 14.1807 16.4998 14.309 16.553C14.4373 16.6062 14.5749 16.6335 14.7138 16.6335C14.8527 16.6335 14.9902 16.6062 15.1186 16.553C15.2469 16.4998 15.3635 16.4219 15.4617 16.3237L16.3234 15.462C16.5215 15.2637 16.6328 14.9948 16.6328 14.7145C16.6328 14.4342 16.5215 14.1653 16.3234 13.967C15.9817 13.6253 15.9234 13.1003 16.1159 12.657C16.1467 12.5878 16.1759 12.517 16.2042 12.4462C16.3809 11.997 16.7942 11.667 17.2759 11.667C17.86 11.667 18.3334 11.1937 18.3334 10.6095V9.39199C18.3334 8.80783 17.86 8.33449 17.2759 8.33449C16.7942 8.33449 16.3809 8.00449 16.2034 7.55533C16.1754 7.48454 16.1463 7.41425 16.1159 7.34449C15.9242 6.90199 15.9825 6.37616 16.3234 6.03449C16.5215 5.83619 16.6328 5.56733 16.6328 5.28699C16.6328 5.00666 16.5215 4.73779 16.3234 4.53949L15.4617 3.67783C15.2634 3.47967 14.9945 3.36836 14.7142 3.36836C14.4338 3.36836 14.165 3.47967 13.9667 3.67783C13.625 4.01949 13.1 4.07783 12.6567 3.88533C12.5869 3.85467 12.5166 3.82522 12.4459 3.79699C11.9967 3.61949 11.6667 3.20533 11.6667 2.72449Z" stroke="black" stroke-opacity="0.7" stroke-width="1.5" stroke-linecap="round" stroke-linejoin="round"/>
<path id="Vector_2" d="M13.3334 10.0003C13.3334 10.8844 12.9822 11.7322 12.357 12.3573C11.7319 12.9825 10.8841 13.3337 10 13.3337C9.11597 13.3337 8.26812 12.9825 7.643 12.3573C7.01788 11.7322 6.66669 10.8844 6.66669 10.0003C6.66669 9.11627 7.01788 8.26842 7.643 7.6433C8.26812 7.01818 9.11597 6.66699 10 6.66699C10.8841 6.66699 11.7319 7.01818 12.357 7.6433C12.9822 8.26842 13.3334 9.11627 13.3334 10.0003Z" stroke="black" stroke-opacity="0.7" stroke-width="1.5" stroke-linecap="round" stroke-linejoin="round"/>
</g>
<defs>
<clipPath id="clip0_2653_31269">
<rect width="20" height="20" fill="white"/>
</clipPath>
</defs>
</svg>
